<svg xmlns="http://www.w3.org/2000/svg" xmlns:xlink="http://www.w3.org/1999/xlink" width="1344" zoomAndPan="magnify" viewBox="0 0 1008 1295.99994" height="1728" preserveAspectRatio="xMidYMid meet" version="1.0"><defs><g/><clipPath id="fbd5067813"><path d="M 221 237.660156 L 347 237.660156 L 347 384 L 221 384 Z M 221 237.660156 " clip-rule="nonzero"/></clipPath><clipPath id="7bc2701fb7"><path d="M 846 736 L 899.707031 736 L 899.707031 876 L 846 876 Z M 846 736 " clip-rule="nonzero"/></clipPath></defs><path fill="#0860d6" d="M 393.769531 484.15625 C 399.59375 491.339844 407.082031 495.375 416.421875 497.101562 C 425.667969 498.796875 428.414062 503.082031 427.425781 511.558594 C 426.5625 518.800781 420.675781 523.519531 412.292969 522.746094 C 402.582031 521.851562 393.890625 517.90625 386.09375 512.082031 C 381.347656 508.539062 376.753906 504.777344 371.019531 500.277344 C 368.460938 506.472656 370.804688 511.898438 370.125 517.015625 C 369.015625 525.519531 366.335938 528.078125 357.640625 529.003906 C 350 529.804688 346.578125 526.167969 345.46875 519.046875 C 341.800781 495.714844 337.976562 472.414062 334.308594 449.078125 C 332.523438 437.675781 330.917969 426.207031 329.316406 414.773438 C 328.144531 406.449219 330.734375 399.515625 338.625 396.03125 C 358.011719 387.464844 377.648438 385.152344 395.863281 398.527344 C 413.957031 411.8125 419.074219 430.648438 415.40625 452.070312 C 413.863281 461.191406 409.023438 468.835938 402.304688 475.339844 C 399.5 478.023438 395.433594 479.503906 393.769531 484.125 Z M 357.765625 430.03125 C 358.9375 437.398438 360.355469 445.84375 361.589844 454.289062 C 363.683594 468.589844 364.886719 469.238281 376.96875 461.746094 C 379.527344 460.175781 382.148438 458.511719 384.242188 456.382812 C 391.425781 449.078125 391.792969 440.386719 388.867188 431.140625 C 386.183594 422.726562 380.542969 417.453125 371.882812 415.820312 C 359.675781 413.539062 356.410156 416.652344 357.765625 430 Z M 357.765625 430.03125 " fill-opacity="1" fill-rule="nonzero"/><path fill="#0860d6" d="M 496.78125 449.449219 C 499 439.0625 497.425781 431.726562 497.117188 424.480469 C 496.71875 415.421875 495.761719 406.359375 497.425781 397.386719 C 498.84375 389.589844 503.53125 386.691406 512.960938 387.15625 C 521.929688 387.617188 525.105469 389.960938 524.890625 399.054688 C 524.121094 430.308594 525.9375 461.410156 527.695312 492.570312 C 528.125 500.121094 526.277344 506.964844 518.140625 509.429688 C 510.3125 511.804688 504.363281 508.042969 500.078125 501.726562 C 491.632812 489.210938 483.464844 476.511719 475.050781 463.996094 C 472.367188 460.023438 470.578125 455.183594 465.183594 452.039062 C 462.628906 456.660156 463.890625 461.132812 464.074219 465.355469 C 464.628906 477.929688 465.769531 490.476562 465.832031 503.050781 C 465.863281 512.019531 461.949219 514.792969 452.578125 515.8125 C 444.65625 516.675781 441.605469 512.421875 440.371094 505.734375 C 439.726562 502.28125 439.417969 498.765625 439.230469 495.253906 C 437.785156 468.128906 436.304688 440.972656 435.007812 413.816406 C 434.363281 399.945312 436.765625 394.644531 444.164062 392.210938 C 452.207031 389.589844 459.144531 393.011719 466.355469 403.675781 C 476.097656 418.070312 485.621094 432.589844 496.839844 449.480469 Z M 496.78125 449.449219 " fill-opacity="1" fill-rule="nonzero"/><path fill="#0860d6" d="M 251.332031 491.617188 C 251.488281 472.503906 251.765625 453.363281 251.796875 434.253906 C 251.796875 425.839844 255.125 419.859375 262.769531 416.128906 C 274.695312 410.335938 282.773438 412.398438 289.03125 424.328125 C 300.25 445.6875 310.914062 467.359375 321.824219 488.902344 C 326.355469 497.871094 330.980469 506.8125 335.355469 515.875 C 337.578125 520.4375 339.394531 525.460938 337.023438 530.359375 C 334.710938 535.167969 330.242188 537.695312 324.9375 538.28125 C 319.574219 538.867188 316.492188 535.445312 314.398438 531.253906 C 310.851562 524.226562 307.863281 518.09375 297.535156 521.699219 C 281.753906 527.214844 277.378906 531.039062 277.285156 543.214844 C 277.285156 547.714844 277.75 552.246094 276.269531 556.683594 C 274.265625 562.726562 270.074219 565.5625 263.910156 565.839844 C 257.21875 566.148438 253.550781 562.480469 252.257812 556.40625 C 251.425781 552.523438 251.148438 548.453125 251.148438 544.476562 C 251.148438 526.878906 251.394531 509.246094 251.515625 491.648438 C 251.457031 491.648438 251.394531 491.648438 251.332031 491.648438 Z M 278.828125 500.863281 C 283.390625 499.320312 286.625 498.242188 289.863281 497.132812 C 293.222656 495.992188 294.980469 493.621094 293.253906 490.351562 C 288.875 482 286.195312 472.535156 277.410156 463.90625 L 278.828125 500.832031 Z M 278.828125 500.863281 " fill-opacity="1" fill-rule="nonzero"/><path fill="#0860d6" d="M 176.09375 508.722656 C 175.785156 519.972656 178.066406 530.792969 181.300781 541.425781 C 182.164062 544.292969 183.460938 547.128906 185.0625 549.625 C 188.667969 555.265625 193.167969 561.121094 200.503906 559.703125 C 208.582031 558.132812 208.457031 550.363281 208.980469 543.832031 C 209.167969 541.363281 208.890625 538.777344 208.488281 536.308594 C 207.472656 529.558594 210.429688 526.136719 216.871094 524.351562 C 229.171875 520.960938 233.457031 523.703125 234.8125 536.585938 C 235.828125 546.234375 235.027344 555.667969 231.050781 564.699219 C 222.050781 585.164062 200.257812 592.285156 180.746094 581.097656 C 170.265625 575.085938 163.054688 566.175781 158.769531 555.050781 C 147.980469 526.9375 146.226562 498.210938 154.363281 469.144531 C 156.675781 460.855469 160.742188 453.269531 166.785156 446.921875 C 182.535156 430.398438 205.40625 431.941406 218.78125 450.40625 C 223.589844 457.0625 226.304688 464.644531 227.8125 472.597656 C 229.664062 482.367188 227.257812 486.160156 218.535156 488.132812 C 207.964844 490.535156 204.757812 488.78125 202.324219 478.609375 C 200.691406 471.765625 200.257812 462.765625 191.6875 462.519531 C 182.472656 462.242188 180.746094 471.765625 178.652344 478.792969 C 175.785156 488.472656 174.890625 498.550781 176 508.691406 Z M 176.09375 508.722656 " fill-opacity="1" fill-rule="nonzero"/><path fill="#0860d6" d="M 617.546875 504.839844 C 617.855469 513.933594 614.464844 518.710938 606.574219 520.28125 C 599.421875 521.699219 596.03125 518.988281 592.457031 510.234375 C 590.605469 505.761719 592.269531 499.445312 586.691406 496.980469 C 580.035156 494.019531 572.882812 495.066406 565.855469 495.5 C 562.464844 495.683594 560.613281 497.59375 559.351562 500.769531 C 558.085938 504.007812 556.515625 507.273438 554.359375 509.957031 C 550.257812 515.074219 544.894531 514.671875 539.285156 512.542969 C 534.167969 510.601562 532.65625 506.75 533.089844 501.789062 C 533.304688 499.289062 533.613281 496.761719 534.292969 494.390625 C 542.890625 464.953125 551.429688 435.484375 560.335938 406.140625 C 563.789062 394.859375 568.90625 391.59375 580.28125 391.46875 C 590.851562 391.378906 596.402344 395.046875 598.558594 405.585938 C 605.0625 437.613281 611.074219 469.761719 617.269531 501.847656 C 617.453125 502.835938 617.484375 503.851562 617.578125 504.839844 Z M 578.03125 440.972656 C 573.683594 451.761719 570.753906 458.972656 570.726562 467.019531 C 583.855469 468.867188 584.164062 468.683594 582.035156 457.09375 C 581.234375 452.746094 579.910156 448.523438 578 440.972656 Z M 578.03125 440.972656 " fill-opacity="1" fill-rule="nonzero"/><path fill="#0860d6" d="M 736.707031 544.199219 C 737.972656 538.746094 736.03125 534.613281 730.296875 532.640625 C 722.808594 530.082031 715.253906 525.953125 707.796875 532.734375 C 705.578125 534.769531 703.667969 537.328125 701.136719 538.804688 C 695.46875 542.136719 690.410156 539.023438 685.726562 536.09375 C 680.546875 532.855469 682.550781 528.265625 684.246094 524.011719 C 685.355469 521.207031 686.4375 518.339844 688.070312 515.84375 C 704.714844 490.074219 721.296875 464.214844 738.3125 438.660156 C 744.847656 428.859375 751.101562 427.6875 763.21875 432.34375 C 772.804688 436.011719 775.546875 440.480469 774.160156 452.5625 C 770.707031 482.554688 766.914062 512.484375 763.246094 542.445312 C 763.0625 543.953125 762.785156 545.433594 762.414062 546.882812 C 760.132812 556.160156 754.648438 561.277344 747.375 560.875 C 739.699219 560.476562 737.046875 556.40625 736.738281 544.167969 Z M 727.617188 503.511719 C 740.652344 508.074219 740.714844 508.074219 742.320312 496.761719 C 742.964844 492.109375 745.0625 487.453125 742.347656 481.289062 C 736.277344 488.285156 731.992188 495.285156 727.585938 503.511719 Z M 727.617188 503.511719 " fill-opacity="1" fill-rule="nonzero"/><path fill="#0860d6" d="M 658.789062 489.273438 C 664.765625 483.632812 666.125 478.699219 668.3125 474.292969 C 676.355469 458.109375 683.96875 441.683594 692.324219 425.652344 C 697.777344 415.203125 702.339844 414.0625 711.648438 419.027344 C 719.109375 423.003906 720.25 426.703125 715.503906 436.597656 C 702.742188 463.351562 689.886719 490.042969 676.632812 516.550781 C 669.359375 531.101562 653.949219 534.492188 641.25 525.121094 C 636.253906 521.421875 635.546875 515.6875 634.835938 510.324219 C 632.277344 490.90625 630.058594 471.425781 627.871094 451.976562 C 626.332031 438.507812 624.328125 425.035156 623.800781 411.535156 C 623.371094 399.945312 628.609375 396.464844 639.921875 398.128906 C 646.671875 399.113281 648.921875 402.84375 649.539062 409.285156 C 651.328125 428.304688 653.609375 447.261719 655.765625 466.21875 C 656.566406 473.121094 657.585938 479.996094 658.816406 489.273438 Z M 658.789062 489.273438 " fill-opacity="1" fill-rule="nonzero"/><path fill="#0860d6" d="M 834.726562 470.5625 C 834.789062 475.804688 832.445312 480.304688 830.289062 484.867188 C 820.332031 505.761719 810.191406 526.570312 800.511719 547.589844 C 795.398438 558.71875 795.765625 558.871094 806.554688 564.542969 C 812.78125 567.8125 819.070312 571.015625 825.203125 574.4375 C 831.335938 577.859375 831.675781 583.039062 828.625 588.617188 C 825.695312 593.980469 822.644531 599.34375 814.660156 596.382812 C 799.988281 590.960938 786.058594 583.902344 772.710938 575.886719 C 766.023438 571.878906 764.265625 564.851562 766.886719 557.269531 C 768.027344 553.941406 769.472656 550.703125 771.015625 547.558594 C 782.636719 523.546875 794.316406 499.566406 805.96875 475.585938 C 808.402344 470.59375 810.714844 465.601562 815.183594 461.964844 C 818.761719 459.066406 822.304688 458.632812 826.28125 460.914062 C 830.226562 463.164062 834.480469 465.109375 834.695312 470.59375 Z M 834.726562 470.5625 " fill-opacity="1" fill-rule="nonzero"/><path fill="#ffb600" d="M 487.410156 274.003906 C 486.515625 270.488281 485.035156 267.558594 485.160156 264.695312 C 485.40625 258.25 488.242188 252.859375 494.714844 250.761719 C 500.847656 248.757812 506.796875 249.835938 511.328125 254.769531 C 516.105469 259.945312 515.796875 265.648438 512.035156 271.320312 C 509.355469 275.390625 504.917969 278.65625 506.828125 284.636719 C 509.878906 294.097656 510.09375 304.640625 517.03125 312.65625 C 521.902344 318.265625 528.34375 319.746094 534.816406 316.96875 C 542.613281 313.640625 550.628906 309.511719 551.707031 299.648438 C 552.078125 296.164062 551.675781 292.652344 553.523438 289.476562 C 556.699219 284.082031 561.140625 281.308594 567.335938 283.710938 C 573.40625 286.054688 576.949219 292.28125 573.992188 296.964844 C 563.390625 313.855469 565.640625 328.25 564.25 350.875 C 561.878906 363.082031 562.277344 363.296875 550.105469 359.597656 C 519.09375 350.136719 487.625 351.152344 456 355.316406 C 451.039062 355.960938 446.199219 357.535156 441.296875 358.550781 C 430.171875 360.894531 428.753906 360.09375 428.226562 349.027344 C 427.640625 336.976562 427.519531 324.890625 427.394531 312.839844 C 427.335938 306.769531 427.488281 301.21875 421.816406 296.65625 C 416.886719 292.710938 416.976562 287.039062 420.953125 281.832031 C 424.375 277.363281 428.84375 275.511719 434.207031 277.421875 C 440.433594 279.644531 441.328125 284.390625 441.050781 290.679688 C 440.464844 304.238281 455.167969 313.394531 467.003906 307.382812 C 475.019531 303.316406 487.65625 282.140625 487.378906 274.003906 Z M 556.453125 352.910156 L 559.011719 307.753906 C 554.664062 311.605469 551.152344 315.152344 547.238281 318.140625 C 529.359375 331.765625 511.851562 326.0625 505.226562 304.640625 C 503.28125 298.351562 502.171875 291.941406 501.835938 285.40625 C 501.710938 282.664062 500.785156 280.257812 498.195312 279.398438 C 494.28125 278.101562 492.804688 281.277344 491.722656 284.050781 C 488.609375 292.097656 484.664062 299.648438 479.054688 306.152344 C 467.960938 319.035156 455.230469 319.804688 442.222656 308.800781 C 439.785156 306.738281 438.675781 302.421875 434.085938 303.46875 C 434.085938 316.414062 433.839844 329.300781 434.144531 342.152344 C 434.421875 352.910156 434.761719 353.125 445.273438 350.722656 C 473.046875 344.371094 501.003906 343.476562 529.082031 347.546875 C 538.269531 348.871094 556.578125 353.804688 556.453125 352.910156 M 500.230469 271.628906 C 504.023438 271.074219 507.074219 268.640625 507.753906 264.386719 C 508.523438 259.484375 505.164062 257.234375 500.785156 256.773438 C 496.070312 256.25 493.140625 258.835938 492.648438 263.367188 C 492.125 268.144531 495.390625 270.335938 500.230469 271.628906 Z M 431.15625 293.851562 C 432.945312 292.957031 435.871094 292.15625 436.058594 288.335938 C 436.210938 284.820312 434.484375 282.230469 431.003906 282.386719 C 426.996094 282.539062 424.558594 285.34375 424.808594 289.414062 C 424.960938 292.15625 427.242188 293.542969 431.15625 293.882812 Z M 568.96875 295.148438 C 568.8125 292.15625 567.425781 290 564.714844 289.597656 C 561.109375 289.074219 558.949219 291.480469 558.425781 294.683594 C 557.933594 297.582031 560.121094 299.308594 562.773438 299.738281 C 566.285156 300.292969 568.535156 298.691406 568.96875 295.148438 Z M 568.96875 295.148438 " fill-opacity="1" fill-rule="nonzero"/><path fill="#ffb600" d="M 714.886719 289.476562 C 714.730469 295.949219 709.429688 301.710938 703.757812 301.621094 C 697.964844 301.527344 691.214844 294.5625 691.152344 288.582031 C 691.089844 282.785156 696.699219 278.039062 703.574219 278.039062 C 710.199219 278.039062 715.070312 282.941406 714.886719 289.476562 Z M 714.886719 289.476562 " fill-opacity="1" fill-rule="nonzero"/><path fill="#ffb600" d="M 663.78125 314.441406 C 663.964844 320.328125 661.253906 322.640625 656.753906 323.074219 C 653.332031 323.382812 651.019531 321.46875 650.589844 318.171875 C 650.003906 313.609375 652.285156 310.4375 656.816406 309.695312 C 660.976562 308.988281 662.855469 311.882812 663.8125 314.472656 Z M 663.78125 314.441406 " fill-opacity="1" fill-rule="nonzero"/><path fill="#ffb600" d="M 697.808594 376.058594 C 698.582031 372.328125 700.246094 369.183594 704.558594 369.523438 C 708.105469 369.800781 709.554688 372.605469 709.492188 375.90625 C 709.398438 379.449219 707.058594 381.453125 703.757812 381.515625 C 700.460938 381.574219 698.242188 379.632812 697.839844 376.058594 Z M 697.808594 376.058594 " fill-opacity="1" fill-rule="nonzero"/><path fill="#ffb600" d="M 574.917969 261.335938 C 573.4375 261.117188 572.113281 259.792969 572.113281 257.542969 C 572.113281 254.675781 573.777344 252.703125 576.519531 252.488281 C 579.417969 252.273438 581.234375 254.183594 580.867188 257.109375 C 580.527344 259.824219 578.707031 261.488281 574.917969 261.304688 Z M 574.917969 261.335938 " fill-opacity="1" fill-rule="nonzero"/><path fill="#ffb600" d="M 480.949219 323.613281 L 493.285156 311.277344 L 505.625 323.613281 L 493.285156 335.949219 Z M 480.949219 323.613281 " fill-opacity="1" fill-rule="nonzero"/><path fill="#ff1b37" d="M 765.28125 374.054688 C 760.472656 389.773438 764.542969 401.550781 771.664062 412.894531 C 757.882812 403.335938 753.074219 389.25 758.746094 373.960938 C 761.828125 365.734375 763.277344 357.566406 764.265625 348.933594 C 766.546875 328.527344 783.835938 312.039062 804.027344 309.851562 C 806.183594 309.601562 808.34375 309.449219 810.5 309.574219 C 814.351562 309.820312 818.605469 310.25 819.222656 314.996094 C 819.839844 319.773438 816.109375 321.410156 812.164062 322.179688 C 810.039062 322.582031 807.847656 322.550781 805.722656 322.886719 C 788.339844 325.785156 780.078125 334.261719 776.53125 353.742188 C 786.519531 355.097656 799.003906 353.34375 801.652344 367.460938 C 802.980469 374.546875 800.234375 380.160156 793.886719 383.855469 C 782.113281 390.636719 774.804688 382.007812 765.3125 374.054688 Z M 784.054688 361.480469 C 781.15625 361.726562 778.226562 362.3125 778.320312 365.824219 C 778.472656 370.757812 781.371094 373.902344 786.304688 374.363281 C 789.972656 374.703125 793.144531 372.515625 792.960938 368.90625 C 792.714844 363.882812 788.894531 361.664062 784.054688 361.480469 Z M 784.054688 361.480469 " fill-opacity="1" fill-rule="nonzero"/><g clip-path="url(#fbd5067813)"><path fill="#ffb600" d="M 342.878906 383.796875 C 341.675781 362.988281 329.5 353.773438 314.644531 346.40625 C 298.769531 338.515625 282.925781 330.5 268.253906 320.390625 C 248.589844 306.859375 233.238281 289.753906 225.195312 266.882812 C 222.820312 260.132812 220.449219 253.195312 221.742188 245.800781 C 222.605469 240.804688 225.316406 237.722656 230.710938 237.96875 C 235.796875 238.214844 237.121094 241.855469 237.09375 246.015625 C 236.90625 274.558594 254.628906 292.957031 273.804688 310.21875 C 288.289062 323.289062 305.765625 332.167969 322.226562 342.398438 C 331.320312 348.039062 339.519531 354.480469 344.019531 364.5625 C 346.484375 370.046875 348.457031 375.535156 342.878906 383.796875 Z M 342.878906 383.796875 " fill-opacity="1" fill-rule="nonzero"/></g><path fill="#0ca500" d="M 609.007812 365.054688 C 600.097656 365.546875 596.371094 359.9375 594.058594 353.066406 C 591.839844 346.40625 593.933594 340.363281 598.679688 335.585938 C 602.378906 331.859375 606.789062 328.804688 610.855469 325.414062 C 614.492188 322.363281 618.4375 319.621094 620.90625 315.367188 C 624.820312 308.554688 624.140625 305.964844 616.464844 302.515625 C 610.519531 299.832031 605.0625 296.78125 602.070312 290.707031 C 600.128906 286.792969 598.957031 282.757812 601.980469 278.75 C 605.402344 274.1875 610.023438 274.09375 614.863281 275.511719 C 620.6875 277.238281 625.160156 280.875 628.242188 286.117188 C 631.015625 290.769531 634.035156 289.566406 637.210938 286.671875 C 640.910156 283.28125 643.191406 279.179688 642.976562 274.09375 C 642.851562 270.921875 642.113281 267.808594 641.773438 264.632812 C 641.339844 260.75 641.402344 256.679688 646.304688 256.0625 C 650.988281 255.476562 652.222656 259.515625 653.546875 263 C 657.925781 274.617188 655.425781 287.347656 645.195312 294.375 C 636.871094 300.078125 631.261719 306.367188 629.105469 316.324219 C 627.6875 322.734375 622.046875 326.710938 617.082031 330.71875 C 613.785156 333.367188 610.117188 335.617188 607.066406 338.484375 C 599.421875 345.636719 599.175781 349.117188 605.617188 357.195312 C 607.21875 359.199219 609.777344 360.492188 608.976562 365.054688 Z M 612.214844 281.953125 C 610.332031 285.960938 611.101562 287.933594 612.738281 289.136719 C 614.464844 290.402344 616.683594 293.113281 618.808594 290.371094 C 620.226562 288.582031 618.222656 286.703125 616.714844 285.375 C 615.265625 284.113281 613.632812 283.035156 612.183594 281.953125 Z M 612.214844 281.953125 " fill-opacity="1" fill-rule="nonzero"/><path fill="#ff1b37" d="M 130.75 525.492188 C 102.546875 522.5625 79.214844 527.894531 57.761719 541.242188 C 56.21875 542.195312 54.433594 542.84375 52.644531 543.335938 C 50.273438 544.015625 47.804688 543.582031 46.480469 541.457031 C 44.753906 538.714844 45.988281 536.21875 48.144531 534.121094 C 63.21875 519.324219 106.433594 511.621094 125.695312 520.40625 C 126.835938 520.929688 127.609375 522.285156 130.75 525.519531 Z M 130.75 525.492188 " fill-opacity="1" fill-rule="nonzero"/><path fill="#ff1b37" d="M 354.40625 321.933594 C 360.972656 322.363281 366.273438 321.996094 371.144531 323.257812 C 377.183594 324.800781 379.988281 329.082031 376.445312 335.308594 C 373.609375 340.304688 370.433594 345.113281 367.535156 349.796875 C 370.867188 356.207031 377.429688 350.691406 381.777344 353.558594 C 379.375 356.671875 376.84375 357.316406 374.195312 357.289062 C 369.539062 357.226562 364.054688 358.457031 361.402344 353.3125 C 359.121094 348.871094 363.066406 345.421875 365.101562 341.84375 C 366.675781 339.101562 368.863281 336.695312 368.675781 333.027344 C 363.929688 328.558594 358.8125 333.027344 353.882812 332.722656 C 343 331.980469 338.101562 325.570312 342.570312 315.675781 C 346.667969 306.613281 352.585938 298.597656 350.027344 287.503906 C 349.167969 283.773438 354.128906 282.941406 356.871094 285.375 C 363.066406 290.925781 363.683594 298.320312 361.402344 305.78125 C 359.894531 310.773438 357.273438 315.429688 354.4375 321.933594 Z M 354.40625 321.933594 " fill-opacity="1" fill-rule="nonzero"/><path fill="#ffb600" d="M 133.402344 508.539062 C 131.367188 509.523438 129.828125 508.660156 128.253906 507.519531 C 113.214844 496.515625 96.230469 493.835938 78.136719 495.839844 C 74.46875 496.238281 70.769531 496.671875 67.101562 496.980469 C 63.617188 497.257812 60.074219 496.546875 59.582031 492.632812 C 59.117188 488.871094 62.136719 486.808594 65.683594 486.375 C 74.867188 485.296875 84.085938 483.570312 93.332031 484.835938 C 105.847656 486.5625 117.867188 490.011719 127.792969 498.367188 C 130.78125 500.894531 134.636719 503.453125 133.371094 508.507812 Z M 133.402344 508.539062 " fill-opacity="1" fill-rule="nonzero"/><path fill="#ffb600" d="M 849.554688 526.078125 C 877.789062 510.632812 907.164062 508.199219 937.492188 517.445312 C 941.160156 518.554688 944.210938 520.992188 943.257812 525.152344 C 942.238281 529.558594 938.261719 529.714844 934.59375 528.851562 C 929.664062 527.710938 924.886719 525.921875 919.921875 524.90625 C 900.875 520.960938 881.734375 520.21875 862.53125 523.886719 C 858.214844 524.71875 853.867188 525.335938 849.523438 526.078125 Z M 849.554688 526.078125 " fill-opacity="1" fill-rule="nonzero"/><path fill="#0ca500" d="M 871.839844 542.320312 C 872.363281 538.589844 875.261719 538.527344 877.511719 537.941406 C 900.9375 532.054688 922.542969 536.925781 942.640625 549.5625 C 945.566406 551.414062 948.035156 554.09375 950.316406 556.746094 C 952.132812 558.839844 951.980469 561.644531 950.128906 563.679688 C 948.34375 565.683594 945.84375 566.238281 943.289062 564.699219 C 942.425781 564.175781 941.5 563.742188 940.730469 563.09375 C 921.773438 547.46875 899.671875 542.320312 875.628906 543.429688 C 874.367188 543.492188 873.070312 542.691406 871.808594 542.289062 Z M 871.839844 542.320312 " fill-opacity="1" fill-rule="nonzero"/><path fill="#ff1b37" d="M 849.585938 504.222656 C 848.628906 501.910156 850.046875 500.371094 851.464844 499.074219 C 864.535156 487.363281 874.488281 473.398438 881.855469 457.523438 C 882.6875 455.707031 883.859375 453.949219 885.214844 452.46875 C 886.632812 450.929688 888.636719 450.34375 890.734375 451.050781 C 893.722656 452.070312 894.03125 454.566406 893.753906 457.214844 C 893.660156 458.203125 893.476562 459.28125 893.046875 460.175781 C 884.320312 478.363281 873.164062 494.480469 855.039062 504.59375 C 853.40625 505.484375 851.21875 506.347656 849.523438 504.253906 Z M 849.585938 504.222656 " fill-opacity="1" fill-rule="nonzero"/><path fill="#0ca500" d="M 796.199219 439.863281 C 790.527344 436.011719 789.816406 431.539062 791.359375 426.609375 C 792.683594 422.324219 794.933594 417.671875 799.589844 417.238281 C 805.507812 416.683594 808.589844 412.863281 812.597656 409.65625 C 818.976562 404.539062 825.480469 404.695312 830.410156 409.410156 C 832.476562 411.351562 833.648438 413.695312 832.015625 416.3125 C 830.472656 418.8125 828.160156 417.886719 826.40625 416.5625 C 820.734375 412.277344 816.789062 413.878906 813.953125 419.890625 C 812.84375 422.230469 811.980469 424.234375 808.402344 424.082031 C 795.675781 423.558594 795.121094 424.359375 796.816406 437.398438 C 796.875 437.796875 796.628906 438.230469 796.230469 439.863281 Z M 796.199219 439.863281 " fill-opacity="1" fill-rule="nonzero"/><path fill="#0ca500" d="M 137.007812 545.1875 C 122.582031 550.671875 112.566406 557.886719 104.367188 567.566406 C 103.503906 568.613281 102.363281 569.507812 101.191406 570.214844 C 99.097656 571.449219 96.90625 571.878906 94.964844 569.816406 C 93.515625 568.273438 93.578125 566.363281 94.132812 564.605469 C 97.957031 552.800781 121.105469 541.027344 137.007812 545.1875 Z M 137.007812 545.1875 " fill-opacity="1" fill-rule="nonzero"/><path fill="#00aaff" d="M 250.933594 352.078125 C 250.871094 357.75 245.753906 362.929688 239.957031 363.175781 C 233.824219 363.453125 229.324219 358.796875 229.480469 352.324219 C 229.632812 346.066406 234.226562 340.335938 239.3125 339.996094 C 244.953125 339.625 251.023438 345.914062 250.960938 352.078125 Z M 240.453125 348.503906 C 238.203125 349.027344 237.957031 350.660156 238.109375 352.449219 C 238.292969 354.757812 240.207031 355.222656 241.808594 354.976562 C 242.515625 354.851562 243.472656 352.941406 243.378906 351.894531 C 243.257812 350.257812 242.640625 348.441406 240.421875 348.503906 Z M 240.453125 348.503906 " fill-opacity="1" fill-rule="nonzero"/><path fill="#ff1b37" d="M 854.515625 553.171875 C 871.871094 554.464844 894.371094 570.617188 898.902344 584.210938 C 899.734375 586.738281 900.105469 589.324219 897.636719 591.082031 C 894.277344 593.457031 891.71875 591.390625 890.179688 588.648438 C 885.894531 581.066406 880.871094 574.039062 874.335938 568.367188 C 868.292969 563.15625 861.667969 558.59375 854.546875 553.140625 Z M 854.515625 553.171875 " fill-opacity="1" fill-rule="nonzero"/><path fill="#00aaff" d="M 648.460938 341.074219 C 654.132812 340.457031 659.464844 344.804688 659.867188 350.011719 C 660.234375 354.851562 657.152344 357.101562 653.023438 357.996094 C 647.597656 359.167969 642.203125 355.222656 641.804688 350.011719 C 641.402344 344.804688 644.175781 342.03125 648.460938 341.074219 Z M 648.460938 341.074219 " fill-opacity="1" fill-rule="nonzero"/><path fill="#00aaff" d="M 134.140625 580.570312 C 138.054688 578.292969 143.574219 579.648438 145.515625 583.714844 C 147.734375 588.433594 146.039062 592.378906 141.910156 595.058594 C 137.65625 597.800781 134.480469 595.921875 132.136719 591.945312 C 129.363281 587.261719 130.074219 582.945312 134.140625 580.570312 Z M 134.140625 580.570312 " fill-opacity="1" fill-rule="nonzero"/><path fill="#00aaff" d="M 995.226562 554.527344 C 989.800781 553.816406 986.808594 550.242188 986.933594 544.445312 C 987.054688 538.804688 989.890625 534.769531 995.75 534.089844 C 1000.925781 533.503906 1007.183594 540.808594 1006.628906 546.203125 C 1006.167969 550.703125 1000.867188 554.773438 995.226562 554.527344 Z M 999.753906 545.09375 C 999.140625 542.9375 997.660156 541.949219 995.503906 542.351562 C 994.085938 542.628906 992.695312 543.335938 993.097656 545.25 C 993.558594 547.46875 994.949219 548.578125 997.226562 548.085938 C 998.707031 547.746094 999.847656 546.882812 999.753906 545.09375 Z M 999.753906 545.09375 " fill-opacity="1" fill-rule="nonzero"/><path fill="#00aaff" d="M 206.578125 317.742188 C 209.042969 318.296875 210.675781 319.746094 210.554688 322.273438 C 210.460938 324.582031 208.890625 325.941406 206.546875 325.601562 C 203.957031 325.230469 202.847656 323.320312 203 320.855469 C 203.125 318.726562 204.605469 317.894531 206.578125 317.773438 Z M 206.578125 317.742188 " fill-opacity="1" fill-rule="nonzero"/><path fill="#ffb600" d="M 156.765625 353.433594 C 156.765625 355.253906 156.953125 356.824219 156.765625 358.367188 C 156.644531 359.507812 155.902344 360.585938 154.546875 360.523438 C 153.839844 360.492188 152.851562 360.152344 152.574219 359.628906 C 151.804688 358.304688 151.1875 356.824219 150.757812 355.316406 C 149.769531 351.984375 148.289062 348.5625 150.757812 345.265625 C 151.125 344.773438 152.296875 344.402344 152.820312 344.617188 C 156.980469 346.375 156.027344 350.382812 156.734375 353.433594 Z M 156.765625 353.433594 " fill-opacity="1" fill-rule="nonzero"/><path fill="#ffb600" d="M 172.207031 358.519531 C 169.898438 352.632812 171.746094 348.257812 176.125 344.925781 C 176.433594 344.679688 177.972656 345.234375 178.097656 345.699219 C 179.851562 351.617188 174.921875 354.511719 172.179688 358.519531 Z M 172.207031 358.519531 " fill-opacity="1" fill-rule="nonzero"/><path fill="#00aaff" d="M 931.789062 470.65625 C 930.742188 474.816406 928.339844 477.160156 924.421875 476.820312 C 921.15625 476.542969 919.058594 474.230469 919.308594 470.808594 C 919.613281 466.554688 922.605469 464.953125 926.457031 465.109375 C 929.941406 465.261719 931.390625 467.726562 931.789062 470.65625 Z M 931.789062 470.65625 " fill-opacity="1" fill-rule="nonzero"/><path fill="#ffb600" d="M 147.550781 372.207031 C 142.28125 377.445312 138.273438 379.878906 132.878906 377.691406 C 131.800781 377.261719 131.398438 375.71875 132.109375 374.734375 C 135.746094 369.957031 140.523438 370.601562 147.550781 372.207031 Z M 147.550781 372.207031 " fill-opacity="1" fill-rule="nonzero"/><path fill="#ffb600" d="M 179.113281 378.214844 C 179.113281 380.066406 178.097656 381.515625 176.492188 381.515625 C 172.640625 381.574219 169.804688 379.417969 168.015625 376.089844 C 167.429688 375.042969 168.109375 373.683594 169.28125 373.222656 C 172.238281 372.113281 178.433594 375.320312 179.113281 378.183594 Z M 179.113281 378.214844 " fill-opacity="1" fill-rule="nonzero"/><path fill="#00aaff" d="M 842.710938 427.503906 C 846.902344 428.796875 849.277344 430.707031 848.628906 434.316406 C 848.011719 437.738281 845.332031 439.402344 841.910156 438.90625 C 838.332031 438.382812 836.730469 435.886719 837.164062 432.402344 C 837.625 428.644531 840.335938 427.6875 842.710938 427.503906 Z M 842.710938 427.503906 " fill-opacity="1" fill-rule="nonzero"/><path fill="#ffb600" d="M 874.644531 367.675781 C 873.101562 365.824219 872.640625 365.484375 872.515625 365.054688 C 870.730469 359.566406 868.695312 354.019531 871.898438 348.472656 C 872.609375 347.238281 874.828125 347.300781 875.507812 348.71875 C 878.21875 354.480469 878.710938 360.308594 874.644531 367.675781 Z M 874.644531 367.675781 " fill-opacity="1" fill-rule="nonzero"/><path fill="#ffb600" d="M 882.65625 382.222656 C 888.824219 383.828125 890.488281 387.433594 892.582031 390.605469 C 893.816406 392.488281 893.722656 394.460938 891.84375 395.539062 C 890.917969 396.0625 888.761719 395.691406 887.960938 394.921875 C 884.597656 391.6875 881.085938 388.296875 882.65625 382.222656 Z M 882.65625 382.222656 " fill-opacity="1" fill-rule="nonzero"/><path fill="#ffb600" d="M 900.011719 353.957031 C 897.515625 361.292969 893.046875 364.53125 888.082031 367.335938 C 889.53125 361.511719 891.257812 355.898438 900.011719 353.957031 Z M 900.011719 353.957031 " fill-opacity="1" fill-rule="nonzero"/><path fill="#00aaff" d="M 59.273438 571.292969 C 56.929688 570.832031 55.109375 569.785156 55.203125 567.164062 C 55.328125 564.019531 57.453125 562.507812 60.289062 562.601562 C 62.507812 562.695312 64.417969 564.050781 64.328125 566.671875 C 64.203125 569.785156 62.167969 571.078125 59.304688 571.292969 Z M 59.273438 571.292969 " fill-opacity="1" fill-rule="nonzero"/><path fill="#ffb600" d="M 866.660156 370.632812 C 858.953125 373.40625 855.070312 370.726562 852.234375 365.949219 C 851.957031 365.484375 852.605469 363.761719 853.128906 363.574219 C 859.449219 361.449219 861.976562 366.441406 866.660156 370.632812 Z M 866.660156 370.632812 " fill-opacity="1" fill-rule="nonzero"/><path fill="#ffb600" d="M 161.730469 382.933594 C 161.761719 385.183594 162.4375 388.019531 159.507812 388.664062 C 156.273438 389.375 155.871094 386.507812 155.839844 384.226562 C 155.839844 381.761719 154.949219 378.125 158.492188 377.753906 C 161.296875 377.476562 161.144531 380.804688 161.699219 382.902344 Z M 161.730469 382.933594 " fill-opacity="1" fill-rule="nonzero"/><path fill="#ffb600" d="M 871.316406 381.453125 C 873.472656 383.796875 872.703125 385.644531 871.839844 387.246094 C 870.636719 389.527344 869.710938 393.351562 866.105469 391.132812 C 863.671875 389.621094 865.335938 386.847656 866.566406 384.875 C 867.523438 383.332031 868.539062 381.605469 871.316406 381.453125 Z M 871.316406 381.453125 " fill-opacity="1" fill-rule="nonzero"/><path fill="#00aaff" d="M 213.390625 392.859375 C 215.054688 393.011719 216.6875 393.382812 216.53125 395.632812 C 216.441406 396.925781 215.671875 398.066406 214.222656 398.160156 C 212.308594 398.28125 210.984375 397.359375 210.984375 395.324219 C 210.984375 393.9375 211.972656 393.136719 213.417969 392.859375 Z M 213.390625 392.859375 " fill-opacity="1" fill-rule="nonzero"/><path fill="#00aaff" d="M 934.78125 593.148438 C 935.210938 595.183594 933.730469 595.707031 932.4375 596.167969 C 930.15625 597 928.460938 595.492188 927.90625 593.824219 C 927.289062 591.914062 928.429688 590.128906 930.867188 590.066406 C 932.992188 590.003906 934.378906 591.050781 934.78125 593.117188 Z M 934.78125 593.148438 " fill-opacity="1" fill-rule="nonzero"/><path fill="#00aaff" d="M 84.085938 428.273438 C 81.1875 429.042969 78.9375 427.902344 77.796875 424.945312 C 76.6875 422.078125 77.242188 419.425781 80.046875 417.886719 C 82.542969 416.5 87.230469 418.839844 88.09375 421.675781 C 88.832031 424.050781 86.980469 427.226562 84.085938 428.273438 Z M 84.394531 422.570312 C 83.621094 421.617188 82.667969 421.429688 81.679688 422.078125 C 81.003906 422.507812 80.476562 423.15625 81.09375 424.050781 C 81.804688 425.066406 82.730469 425.34375 83.777344 424.605469 C 84.453125 424.113281 84.824219 423.433594 84.425781 422.570312 Z M 84.394531 422.570312 " fill-opacity="1" fill-rule="nonzero"/><path fill="#0ca500" d="M 135.683594 493.1875 C 137.316406 491.460938 136.207031 490.011719 135.589844 488.65625 C 129.179688 474.816406 118.238281 466.125 104.058594 461.285156 C 101.992188 460.578125 99.679688 460.421875 97.492188 460.359375 C 95.734375 460.300781 94.441406 461.5 94.164062 463.195312 C 93.886719 464.859375 94.59375 466.308594 96.382812 466.957031 C 96.96875 467.171875 97.585938 467.449219 98.203125 467.574219 C 113.398438 470.6875 124.710938 479.503906 133.679688 491.738281 C 134.140625 492.386719 135.066406 492.695312 135.746094 493.1875 Z M 135.683594 493.1875 " fill-opacity="1" fill-rule="nonzero"/><path fill="#00aaff" d="M 157.691406 417.640625 C 162.59375 418.71875 165.828125 421.617188 165.644531 426.671875 C 165.457031 431.261719 162.34375 434.007812 157.628906 433.296875 C 152.480469 432.527344 150.230469 428.765625 150.539062 423.804688 C 150.785156 419.582031 153.714844 417.886719 157.691406 417.640625 Z M 157.691406 417.640625 " fill-opacity="1" fill-rule="nonzero"/><path fill="#00aaff" d="M 281.292969 394.738281 C 277.75 394.027344 274.945312 392.457031 275.097656 388.449219 C 275.25 383.671875 278.519531 381.359375 282.835938 381.515625 C 286.195312 381.636719 289.152344 383.703125 288.96875 387.710938 C 288.78125 392.457031 285.667969 394.429688 281.292969 394.738281 Z M 281.292969 394.738281 " fill-opacity="1" fill-rule="nonzero"/><path fill="#ffb600" d="M 676.140625 385.921875 C 675.492188 368.042969 684.523438 359.289062 695.835938 351.832031 C 707.917969 343.878906 720.003906 335.804688 730.945312 326.0625 C 745.617188 312.992188 756.589844 297.210938 761.246094 277.085938 C 762.632812 271.136719 763.957031 265.03125 762.355469 258.804688 C 761.273438 254.613281 758.871094 252.179688 754.554688 252.796875 C 750.519531 253.382812 749.746094 256.585938 750.085938 260.164062 C 752.492188 284.511719 739.730469 301.589844 725.734375 317.800781 C 715.164062 330.070312 701.878906 338.976562 689.488281 348.964844 C 682.644531 354.480469 676.601562 360.585938 673.765625 369.554688 C 672.226562 374.425781 671.085938 379.265625 676.171875 385.890625 Z M 676.140625 385.921875 " fill-opacity="1" fill-rule="nonzero"/><g fill="#ff1b37" fill-opacity="1"><g transform="translate(230.957641, 702.364825)"><g><path d="M 63.78125 0.753906 C 79.210938 0.753906 104.609375 1.316406 122.484375 0 C 125.117188 -0.1875 126.625 -3.011719 126.625 -5.644531 C 127 -16.746094 127.1875 -31.796875 127.1875 -43.273438 C 127.1875 -48.917969 122.109375 -50.613281 118.34375 -46.847656 C 107.246094 -37.441406 92.570312 -32.550781 76.953125 -32.550781 C 61.523438 -32.550781 56.820312 -34.996094 56.632812 -40.265625 C 56.445312 -55.503906 122.859375 -59.453125 122.859375 -98.027344 C 122.859375 -122.859375 101.976562 -133.210938 65.851562 -133.210938 C 50.613281 -133.210938 31.042969 -131.140625 17.121094 -127.1875 C 15.050781 -126.246094 13.546875 -124.367188 13.171875 -122.109375 C 12.230469 -112.324219 10.914062 -98.589844 10.535156 -89.558594 C 10.160156 -83.539062 15.238281 -82.03125 18.4375 -85.417969 C 27.847656 -92.570312 43.273438 -98.589844 55.128906 -98.589844 C 66.605469 -98.589844 75.070312 -95.390625 75.070312 -89.183594 C 75.070312 -72.0625 6.585938 -65.851562 3.761719 -29.726562 C 3.386719 -22.765625 3.199219 -13.359375 3.199219 -7.148438 C 3.386719 -2.632812 6.207031 -0.375 11.476562 0 C 22.390625 0.375 48.167969 0.753906 63.78125 0.753906 Z M 63.78125 0.753906 "/></g></g></g><g fill="#ff1b37" fill-opacity="1"><g transform="translate(355.128109, 702.364825)"><g><path d="M 68.484375 1.503906 C 109.503906 1.503906 134.714844 -18.4375 134.714844 -63.40625 C 134.714844 -108.5625 109.691406 -133.210938 68.484375 -133.210938 C 27.46875 -133.019531 2.257812 -108.5625 2.257812 -63.40625 C 2.257812 -18.4375 27.65625 1.503906 68.484375 1.503906 Z M 68.484375 -36.6875 C 57.007812 -36.6875 50.425781 -46.847656 50.425781 -64.722656 C 50.425781 -82.972656 56.632812 -95.015625 68.484375 -95.015625 C 80.339844 -95.015625 86.546875 -82.972656 86.546875 -64.722656 C 86.546875 -46.847656 80.152344 -36.6875 68.484375 -36.6875 Z M 68.484375 -36.6875 "/></g></g></g><g fill="#ff1b37" fill-opacity="1"><g transform="translate(485.319004, 702.364825)"><g><path d="M 63.78125 0.753906 C 79.210938 0.753906 104.609375 1.316406 122.484375 0 C 125.117188 -0.1875 126.625 -3.011719 126.625 -5.644531 C 127 -16.746094 127.1875 -31.796875 127.1875 -43.273438 C 127.1875 -48.917969 122.109375 -50.613281 118.34375 -46.847656 C 107.246094 -37.441406 92.570312 -32.550781 76.953125 -32.550781 C 61.523438 -32.550781 56.820312 -34.996094 56.632812 -40.265625 C 56.445312 -55.503906 122.859375 -59.453125 122.859375 -98.027344 C 122.859375 -122.859375 101.976562 -133.210938 65.851562 -133.210938 C 50.613281 -133.210938 31.042969 -131.140625 17.121094 -127.1875 C 15.050781 -126.246094 13.546875 -124.367188 13.171875 -122.109375 C 12.230469 -112.324219 10.914062 -98.589844 10.535156 -89.558594 C 10.160156 -83.539062 15.238281 -82.03125 18.4375 -85.417969 C 27.847656 -92.570312 43.273438 -98.589844 55.128906 -98.589844 C 66.605469 -98.589844 75.070312 -95.390625 75.070312 -89.183594 C 75.070312 -72.0625 6.585938 -65.851562 3.761719 -29.726562 C 3.386719 -22.765625 3.199219 -13.359375 3.199219 -7.148438 C 3.386719 -2.632812 6.207031 -0.375 11.476562 0 C 22.390625 0.375 48.167969 0.753906 63.78125 0.753906 Z M 63.78125 0.753906 "/></g></g></g><g fill="#ff1b37" fill-opacity="1"><g transform="translate(609.489492, 702.364825)"><g><path d="M 104.800781 0.753906 C 109.503906 0.753906 118.910156 0.375 124.179688 0 C 127 -0.1875 129.632812 -2.445312 129.632812 -5.457031 C 129.632812 -17.496094 129.257812 -26.90625 129.257812 -38.007812 C 129.070312 -41.394531 130.574219 -42.523438 132.832031 -42.523438 C 135.277344 -42.523438 137.726562 -42.332031 139.984375 -42.332031 C 142.242188 -42.332031 143.933594 -43.652344 143.933594 -47.039062 C 144.121094 -53.808594 144.308594 -61.335938 143.933594 -68.109375 C 143.933594 -70.933594 142.242188 -72.25 139.792969 -72.25 C 136.972656 -72.4375 133.960938 -72.25 131.140625 -72.0625 C 129.445312 -72.0625 128.128906 -73.378906 128.128906 -75.070312 C 128.128906 -94.449219 126.246094 -114.207031 124.929688 -126.8125 C 124.554688 -129.632812 122.296875 -131.328125 119.664062 -131.890625 C 114.769531 -132.269531 107.808594 -132.457031 103.671875 -132.457031 C 99.15625 -132.457031 89.183594 -132.457031 83.914062 -131.890625 C 80.714844 -131.328125 78.644531 -128.882812 79.023438 -125.308594 C 79.773438 -114.394531 81.65625 -91.816406 81.46875 -78.644531 C 81.46875 -73.191406 78.269531 -69.992188 73 -69.804688 L 62.089844 -69.804688 C 55.128906 -69.992188 51.554688 -73.191406 52.683594 -80.339844 C 54 -93.699219 57.386719 -113.078125 60.960938 -124.929688 C 62.089844 -128.503906 60.207031 -131.140625 56.820312 -131.703125 C 51.742188 -132.269531 41.769531 -132.457031 37.066406 -132.457031 C 32.925781 -132.457031 26.152344 -132.269531 21.074219 -131.703125 C 18.4375 -131.328125 15.992188 -129.070312 15.238281 -126.4375 C 7.714844 -100.285156 3.199219 -75.257812 2.820312 -51.929688 C 2.820312 -44.589844 7.902344 -41.394531 13.359375 -41.015625 C 27.65625 -40.074219 60.582031 -41.394531 71.871094 -41.582031 C 77.515625 -41.769531 80.714844 -39.136719 80.714844 -33.300781 C 80.714844 -25.398438 79.585938 -17.496094 78.457031 -6.398438 C 77.894531 -2.632812 80.714844 -0.1875 83.539062 0 C 88.804688 0.375 100.09375 0.753906 104.800781 0.753906 Z M 104.800781 0.753906 "/></g></g></g><path fill="#0860d6" d="M 608.617188 852.980469 C 608.617188 854.113281 608.558594 855.242188 608.449219 856.371094 C 608.339844 857.5 608.171875 858.621094 607.949219 859.730469 C 607.730469 860.84375 607.453125 861.941406 607.125 863.027344 C 606.796875 864.113281 606.414062 865.175781 605.980469 866.226562 C 605.546875 867.273438 605.0625 868.296875 604.527344 869.296875 C 603.996094 870.296875 603.414062 871.265625 602.78125 872.210938 C 602.152344 873.152344 601.476562 874.0625 600.757812 874.9375 C 600.039062 875.8125 599.28125 876.652344 598.476562 877.453125 C 597.675781 878.257812 596.835938 879.015625 595.960938 879.734375 C 595.085938 880.453125 594.175781 881.128906 593.234375 881.757812 C 592.289062 882.390625 591.320312 882.972656 590.320312 883.503906 C 589.320312 884.039062 588.296875 884.523438 587.25 884.957031 C 586.199219 885.390625 585.136719 885.773438 584.050781 886.101562 C 582.964844 886.429688 581.867188 886.707031 580.753906 886.925781 C 579.644531 887.148438 578.523438 887.316406 577.394531 887.425781 C 576.265625 887.535156 575.136719 887.59375 574.003906 887.59375 C 572.867188 887.59375 571.738281 887.535156 570.609375 887.425781 C 569.480469 887.316406 568.363281 887.148438 567.25 886.925781 C 566.136719 886.707031 565.039062 886.429688 563.953125 886.101562 C 562.871094 885.773438 561.804688 885.390625 560.757812 884.957031 C 559.707031 884.523438 558.683594 884.039062 557.683594 883.503906 C 556.6875 882.972656 555.714844 882.390625 554.773438 881.757812 C 553.828125 881.128906 552.921875 880.453125 552.042969 879.734375 C 551.167969 879.015625 550.328125 878.257812 549.527344 877.453125 C 548.726562 876.652344 547.964844 875.8125 547.246094 874.9375 C 546.527344 874.0625 545.851562 873.152344 545.222656 872.210938 C 544.59375 871.265625 544.011719 870.296875 543.476562 869.296875 C 542.941406 868.296875 542.457031 867.273438 542.023438 866.226562 C 541.589844 865.175781 541.207031 864.113281 540.878906 863.027344 C 540.550781 861.941406 540.273438 860.84375 540.054688 859.730469 C 539.832031 858.621094 539.667969 857.5 539.554688 856.371094 C 539.445312 855.242188 539.390625 854.113281 539.390625 852.980469 C 539.390625 851.84375 539.445312 850.714844 539.554688 849.585938 C 539.667969 848.457031 539.832031 847.335938 540.054688 846.226562 C 540.273438 845.113281 540.550781 844.015625 540.878906 842.929688 C 541.207031 841.847656 541.589844 840.78125 542.023438 839.734375 C 542.457031 838.683594 542.941406 837.660156 543.476562 836.660156 C 544.011719 835.664062 544.59375 834.691406 545.222656 833.75 C 545.851562 832.804688 546.527344 831.894531 547.246094 831.019531 C 547.964844 830.144531 548.726562 829.304688 549.527344 828.503906 C 550.328125 827.703125 551.167969 826.941406 552.042969 826.222656 C 552.921875 825.503906 553.828125 824.828125 554.773438 824.199219 C 555.714844 823.570312 556.6875 822.988281 557.683594 822.453125 C 558.683594 821.917969 559.707031 821.433594 560.757812 821 C 561.804688 820.566406 562.871094 820.183594 563.953125 819.855469 C 565.039062 819.527344 566.136719 819.25 567.25 819.03125 C 568.363281 818.808594 569.480469 818.644531 570.609375 818.53125 C 571.738281 818.421875 572.867188 818.363281 574.003906 818.363281 C 575.136719 818.363281 576.265625 818.421875 577.394531 818.53125 C 578.523438 818.644531 579.644531 818.808594 580.753906 819.03125 C 581.867188 819.25 582.964844 819.527344 584.050781 819.855469 C 585.136719 820.183594 586.199219 820.566406 587.25 821 C 588.296875 821.433594 589.320312 821.917969 590.320312 822.453125 C 591.320312 822.988281 592.289062 823.570312 593.234375 824.199219 C 594.175781 824.828125 595.085938 825.503906 595.960938 826.222656 C 596.835938 826.941406 597.675781 827.703125 598.476562 828.503906 C 599.28125 829.304688 600.039062 830.144531 600.757812 831.019531 C 601.476562 831.894531 602.152344 832.804688 602.78125 833.75 C 603.414062 834.691406 603.996094 835.664062 604.527344 836.660156 C 605.0625 837.660156 605.546875 838.683594 605.980469 839.734375 C 606.414062 840.78125 606.796875 841.847656 607.125 842.929688 C 607.453125 844.015625 607.730469 845.113281 607.949219 846.226562 C 608.171875 847.335938 608.339844 848.457031 608.449219 849.585938 C 608.558594 850.714844 608.617188 851.84375 608.617188 852.980469 Z M 608.617188 852.980469 " fill-opacity="1" fill-rule="nonzero"/><path fill="#954d1a" d="M 413.351562 735.199219 L 413.652344 727.527344 L 448.523438 718.671875 L 456.289062 712.078125 L 541.117188 709.828125 L 552.910156 714.003906 L 578.722656 736.628906 L 578.722656 810.953125 L 549.894531 814.453125 L 423.414062 823.941406 " fill-opacity="1" fill-rule="nonzero"/><path fill="#0860d6" d="M 506.972656 957.664062 C 496.011719 956.15625 485.257812 957.871094 474.503906 959.734375 C 448.863281 964.140625 425.679688 957.132812 403.988281 944.117188 C 393.992188 938.121094 384.707031 931.0625 376.125 923.050781 C 371.210938 918.472656 368.503906 912.972656 367.632812 906.578125 C 364.914062 886.539062 361.367188 866.683594 355.734375 847.230469 C 355.449219 846.242188 355.136719 845.242188 354.707031 844.320312 C 353.003906 840.679688 353.65625 839.363281 357.765625 838.570312 C 363.902344 837.386719 369.882812 838.46875 375.824219 839.925781 C 383.847656 841.886719 391.078125 845.683594 398.152344 849.78125 C 404.925781 853.707031 412.128906 856.554688 419.710938 858.464844 C 421.230469 858.855469 422.765625 859.296875 424.300781 858.960938 C 429.226562 857.855469 432.828125 859.894531 436.613281 862.925781 C 452.230469 875.410156 469.148438 886.007812 486.023438 896.65625 C 495.582031 902.675781 504.789062 900.21875 513.566406 895.265625 C 524.433594 889.125 534.695312 881.726562 543.199219 872.742188 C 556.472656 858.699219 572.78125 851.121094 591.023438 847.035156 C 604.664062 843.980469 617.914062 839.285156 631.839844 837.542969 C 634.53125 837.207031 637.261719 837.179688 639.964844 837.0625 C 641.332031 837 642.382812 837.441406 641.773438 839.078125 C 639.226562 845.890625 640.992188 852.707031 642.035156 859.414062 C 644.386719 874.65625 650.289062 888.28125 661.796875 898.984375 C 664.488281 901.480469 663.980469 902.988281 661.09375 904.457031 C 641.589844 914.40625 623.699219 927.5 603.390625 935.675781 C 578.554688 945.6875 553.40625 955.21875 526.371094 957.898438 C 519.882812 958.550781 513.433594 958.144531 506.972656 957.679688 Z M 506.972656 957.664062 " fill-opacity="1" fill-rule="nonzero"/><path fill="#954d1a" d="M 863.210938 841.9375 C 863.382812 851.300781 862.496094 858.621094 860.949219 865.863281 C 859.648438 871.9375 859.636719 872.289062 853.578125 872.757812 C 830.183594 874.523438 808.664062 882.691406 787.445312 891.855469 C 776.523438 896.578125 765.847656 901.792969 753.921875 903.964844 C 740.179688 906.460938 726.644531 905.863281 712.988281 903.585938 C 705.046875 902.257812 697.046875 901.285156 689.714844 897.773438 C 683.070312 894.601562 676.84375 896.449219 671.148438 899.632812 C 664.878906 903.144531 660.746094 901.621094 655.945312 896.757812 C 642.097656 882.714844 635.492188 866.152344 636.78125 846.503906 C 637.25 839.402344 638.355469 838.546875 645.324219 837.816406 C 653.554688 836.960938 661.757812 835.917969 670.027344 835.371094 C 680.78125 834.65625 691.367188 835.476562 701.445312 839.011719 C 719.59375 845.386719 738.035156 844.785156 756.71875 842.863281 C 770.75 841.417969 784.855469 840.78125 798.953125 840.171875 C 810.289062 839.675781 821.265625 837.542969 831.71875 832.890625 C 836.023438 830.976562 838.921875 828.089844 840.546875 823.683594 C 842.941406 817.222656 844.304688 810.5 846.023438 803.855469 C 846.308594 802.722656 846.503906 801.566406 846.84375 800.460938 C 847.207031 799.277344 847.230469 797.703125 848.894531 797.519531 C 850.496094 797.339844 851.003906 798.796875 851.71875 799.835938 C 860.832031 813.136719 863.210938 828.207031 863.226562 841.953125 Z M 863.210938 841.9375 " fill-opacity="1" fill-rule="nonzero"/><path fill="#954d1a" d="M 136.402344 804.503906 C 138.484375 806.46875 138.742188 808.976562 139.328125 811.226562 C 140.5 815.738281 141.320312 820.339844 142.382812 824.878906 C 143.816406 831.015625 147.46875 835.605469 151.796875 840.15625 C 159.015625 847.726562 167.363281 849.648438 177.441406 848.972656 C 191.925781 847.984375 206.410156 847.179688 220.832031 845.542969 C 231.6875 844.304688 242.597656 844.617188 253.457031 845.386719 C 263.714844 846.113281 273.558594 845.203125 283.21875 841.433594 C 294.597656 837 306.207031 833.460938 318.714844 833.890625 C 327.949219 834.203125 336.492188 837.257812 345.230469 839.597656 C 347.6875 840.261719 348.234375 843.914062 346.191406 847.335938 C 342.40625 853.667969 338.871094 860.167969 333.996094 865.800781 C 328.535156 872.105469 322.398438 877.683594 315.738281 882.664062 C 308.160156 888.320312 300.394531 893.742188 292.671875 899.21875 C 285.300781 904.445312 276.613281 905.601562 268.03125 906.835938 C 255.082031 908.710938 242.363281 907.03125 229.414062 905.300781 C 206.425781 902.222656 184.5 894.9375 161.929688 890.335938 C 151.851562 888.28125 142.085938 889.464844 132.308594 891.820312 C 131.046875 892.117188 129.796875 892.457031 128.523438 892.691406 C 127.40625 892.898438 126.378906 892.574219 125.84375 891.558594 C 125.285156 890.492188 125.675781 889.398438 126.675781 888.867188 C 128.757812 887.773438 128.222656 886.566406 127.523438 884.746094 C 124.726562 877.542969 124.53125 869.804688 123.441406 862.261719 C 122.777344 857.660156 122.800781 852.980469 123.074219 848.285156 C 123.609375 839.089844 126.324219 830.703125 131.917969 823.382812 C 135.179688 819.121094 137.5625 814.816406 135.949219 809.160156 C 135.570312 807.832031 135.273438 806.15625 136.402344 804.515625 Z M 136.402344 804.503906 " fill-opacity="1" fill-rule="nonzero"/><path fill="#0860d6" d="M 583.027344 738.90625 C 572.261719 733.328125 570.402344 733.261719 562.898438 741.832031 C 554.148438 751.828125 549.179688 763.3125 549.90625 777.261719 C 550.53125 789.277344 554.914062 799.289062 562.089844 808.46875 C 564.992188 812.1875 563.273438 821.019531 558.957031 824.152344 C 551.027344 829.925781 541.925781 833.058594 532.417969 834.632812 C 514.109375 837.648438 495.621094 838.976562 477.066406 838.402344 C 466.664062 838.078125 456.457031 836.230469 446.523438 833.070312 C 433.910156 829.054688 432.101562 825.828125 434.832031 812.96875 C 436.289062 806.078125 438.773438 799.863281 442.84375 793.867188 C 451.917969 780.460938 452.476562 758.34375 435.9375 744.679688 C 430.488281 740.179688 424.46875 736.746094 417.683594 734.601562 C 415.535156 733.925781 414.210938 734.847656 412.726562 735.863281 C 411.949219 736.394531 411.152344 736.914062 410.242188 736.316406 C 409.359375 735.730469 409.449219 734.730469 409.554688 733.847656 C 409.878906 731.089844 411.308594 728.984375 413.652344 727.566406 C 424.390625 721.011719 435.46875 715.109375 447.222656 710.53125 C 450.515625 709.257812 452.972656 709.855469 456.289062 712.105469 C 464.570312 717.75 468.457031 725.421875 470.550781 734.742188 C 471.644531 739.632812 473.449219 744.40625 476.167969 748.746094 C 483.789062 760.96875 494.371094 764.898438 508.402344 761.113281 C 524.085938 756.875 530.339844 744.910156 533.902344 730.699219 C 535.320312 725.054688 536.214844 719.28125 536.386719 713.433594 C 536.449219 710.832031 537.800781 710.351562 540.207031 709.335938 C 546.421875 706.722656 549.441406 710.441406 552.9375 714.015625 C 559.6875 720.933594 567.382812 726.566406 576.042969 730.882812 C 579.152344 732.429688 581.230469 734.964844 583.050781 738.90625 Z M 583.027344 738.90625 " fill-opacity="1" fill-rule="nonzero"/><g clip-path="url(#7bc2701fb7)"><path fill="#0860d6" d="M 899.53125 848.765625 C 899.800781 868.320312 886.449219 875.992188 867.671875 875.136719 C 855.421875 874.578125 856.515625 875.042969 859.324219 863.863281 C 863.847656 845.75 862.589844 828.15625 855.164062 811.03125 C 853.914062 808.15625 852.382812 805.402344 850.09375 803.269531 C 847.21875 800.589844 846.113281 797.328125 846.101562 793.554688 C 846.023438 779.042969 846.164062 764.53125 848.351562 750.125 C 848.507812 749.097656 848.777344 748.097656 849.027344 747.097656 C 851.5625 737.1875 859.335938 734.027344 867.945312 739.605469 C 873.835938 743.417969 878.4375 748.34375 880.777344 755.195312 C 885.8125 769.878906 888.515625 785.011719 889.816406 800.421875 C 890.726562 811.175781 892.324219 821.734375 896.488281 831.824219 C 898.621094 837 899.609375 842.5 899.53125 848.765625 Z M 899.53125 848.765625 " fill-opacity="1" fill-rule="nonzero"/></g><path fill="#0860d6" d="M 141.058594 794.570312 C 141.058594 798.585938 141.03125 802.605469 141.058594 806.625 C 141.097656 812.683594 139.925781 817.859375 135.636719 822.941406 C 128.40625 831.523438 126.808594 842.578125 125.414062 853.460938 C 123.972656 864.757812 126.078125 875.644531 128.785156 886.5 C 130.046875 891.546875 129.617188 892 124.492188 892.652344 C 115.859375 893.742188 107.484375 893.328125 99.5 889.230469 C 92.949219 885.875 89.464844 880.648438 88.164062 873.535156 C 86.769531 865.929688 87.070312 858.375 89.96875 851.339844 C 95.300781 838.390625 96.472656 824.777344 97.902344 811.109375 C 99.265625 798.082031 101.933594 785.273438 106.277344 772.855469 C 108.757812 765.742188 113.636719 760.683594 119.914062 756.976562 C 128.132812 752.128906 135.402344 755.222656 137.847656 764.441406 C 140.460938 774.3125 140.214844 784.480469 141.085938 794.570312 Z M 141.058594 794.570312 " fill-opacity="1" fill-rule="nonzero"/><path fill="#ffb600" d="M 505.867188 900.503906 C 496.230469 900.59375 489.238281 898.386719 482.046875 895.355469 C 476.9375 893.210938 472.929688 889.515625 467.859375 887.332031 C 463.75 885.5625 459.589844 882.808594 455.585938 880.335938 C 452.269531 878.296875 449.003906 876.539062 445.558594 874.773438 C 441.125 872.507812 437.367188 868.972656 432.152344 868.023438 C 430.800781 867.777344 429.996094 866.214844 429.515625 864.835938 C 428.707031 862.535156 427.511719 860.664062 425.082031 859.765625 C 423.285156 859.101562 422.894531 858.035156 424.441406 856.621094 C 426.589844 854.644531 428.097656 852.199219 429.109375 849.53125 C 430.074219 847.011719 431.515625 846.761719 433.933594 847.363281 C 449.019531 851.066406 464.011719 855.304688 479.679688 856.007812 C 508.480469 857.296875 536.527344 853.210938 563.859375 844.164062 C 565.082031 843.757812 566.277344 843.226562 567.476562 842.71875 C 574.769531 839.613281 576.914062 840.523438 579.839844 847.960938 C 580.738281 850.25 580.257812 851.914062 577.890625 853.042969 C 573 855.359375 567.917969 857.257812 563.46875 860.46875 C 556.628906 865.410156 549.113281 869.503906 543.992188 876.527344 C 543.613281 877.046875 543.183594 877.75 542.652344 877.90625 C 537.398438 879.425781 534.472656 884.226562 530.105469 887.074219 C 526.152344 889.660156 521.523438 892.105469 518.441406 896.136719 C 517.90625 896.824219 517.167969 897.589844 516.375 897.8125 C 512.289062 898.957031 508.15625 899.933594 505.878906 900.503906 Z M 505.867188 900.503906 " fill-opacity="1" fill-rule="nonzero"/><path fill="#ff1b37" d="M 516.152344 876.214844 C 513.773438 875.617188 511.886719 876.1875 510.3125 877.828125 C 510.054688 878.101562 509.703125 878.464844 509.378906 878.492188 C 503.136719 878.972656 497.585938 882.742188 490.457031 880.050781 C 485.765625 878.28125 481.160156 874.964844 475.660156 875.304688 C 475.285156 875.332031 474.710938 875.304688 474.542969 875.070312 C 470.617188 869.492188 463.101562 872.328125 458.523438 868.230469 C 457.9375 867.699219 456.847656 867.644531 455.976562 867.515625 C 455.089844 867.386719 453.894531 867.777344 453.308594 867.320312 C 448.601562 863.652344 442.398438 863.367188 437.472656 860.105469 C 434.535156 858.152344 431.007812 857.035156 427.695312 855.671875 C 423.195312 853.8125 422.207031 850.976562 424.832031 846.933594 C 426.953125 843.65625 428.890625 840.3125 429.75 836.453125 C 430.164062 834.578125 431.101562 834.59375 432.53125 835.515625 C 445.78125 843.96875 460.824219 846.164062 475.972656 846.984375 C 498.46875 848.207031 520.351562 844.03125 541.808594 837.503906 C 550 835.007812 557.203125 830.769531 563.054688 824.386719 C 563.796875 823.578125 564.484375 822.265625 565.875 822.824219 C 566.980469 823.265625 566.785156 824.582031 567.046875 825.554688 C 568.152344 829.703125 571.273438 832.785156 572.832031 836.738281 C 574.847656 841.863281 574.664062 843.722656 569.699219 846.074219 C 562.402344 849.53125 555.695312 854.070312 548.738281 858.023438 C 544.382812 860.507812 539.765625 863.71875 535.539062 866.957031 C 530.832031 870.570312 524.527344 872.3125 519.417969 875.851562 C 518.585938 876.421875 517.152344 876.125 516.152344 876.214844 Z M 516.152344 876.214844 " fill-opacity="1" fill-rule="nonzero"/><path fill="#0ca500" d="M 497.972656 858.464844 C 494.191406 861.054688 489.054688 856.710938 483.671875 857.632812 C 480.734375 858.140625 477.703125 856.371094 475.285156 855.253906 C 469.757812 852.691406 463.699219 852.769531 458.121094 850.457031 C 454.246094 848.84375 450.304688 846.4375 445.742188 846.503906 C 442.816406 846.542969 441.035156 844.007812 438.628906 842.835938 C 435.871094 841.496094 433.585938 839.066406 430.605469 837.816406 C 429.046875 837.167969 429.683594 835.855469 430.074219 834.8125 C 431.359375 831.421875 432.558594 828.011719 433.078125 824.398438 C 433.3125 822.773438 433.972656 822.097656 435.652344 823.253906 C 446.132812 830.546875 458.378906 832.472656 470.5625 833.851562 C 495.203125 836.632812 519.066406 832.097656 542.484375 824.761719 C 549.777344 822.472656 556.070312 818.441406 561.296875 812.8125 C 562.050781 812.007812 562.703125 810.617188 564.042969 811.042969 C 565.394531 811.472656 565.015625 813.035156 565.25 814.101562 C 565.769531 816.492188 565.578125 819.234375 566.683594 821.277344 C 569.582031 826.609375 566.460938 829.78125 563.25 833.125 C 562.988281 833.382812 562.585938 833.773438 562.324219 833.734375 C 557.878906 832.863281 554.601562 836.21875 550.570312 837.039062 C 546.96875 837.765625 543.417969 839.519531 540.324219 841.847656 C 536.164062 844.996094 531.210938 846.59375 526.542969 848.738281 C 521.78125 850.910156 516.699219 852.222656 511.953125 854.589844 C 508.207031 856.464844 504.035156 858.140625 497.988281 858.480469 Z M 497.972656 858.464844 " fill-opacity="1" fill-rule="nonzero"/><path fill="#954d1a" d="M 666.90625 943.492188 C 665.554688 952.308594 662.109375 961.488281 653.878906 968.160156 C 649.394531 971.800781 643.644531 971.941406 639.171875 968.238281 C 632.085938 962.347656 626.09375 955.351562 620.382812 948.148438 C 617.925781 945.039062 617.679688 941.191406 618.445312 937.367188 C 619.472656 932.179688 618.355469 927.617188 615.832031 922.882812 C 601.59375 896.136719 586.875 869.621094 574.289062 842.03125 C 570.246094 833.175781 566.757812 824.125 565.015625 814.476562 C 564.601562 812.164062 563.886719 809.9375 562.011719 808.300781 C 543.328125 791.96875 547.957031 756.746094 561.390625 742.546875 C 562.546875 741.324219 563.652344 740.046875 564.796875 738.8125 C 569.621094 733.625 572.480469 733.078125 578.710938 736.628906 C 587.34375 741.542969 593.273438 748.917969 597.5 757.785156 C 601.710938 766.613281 603.390625 776.039062 603.714844 785.664062 C 603.972656 793.164062 605.027344 800.238281 608.695312 806.949219 C 611.175781 811.5 612.28125 816.660156 613.207031 821.773438 C 614.742188 830.277344 617.496094 838.324219 621.917969 845.75 C 634.207031 866.4375 639.511719 889.011719 640.238281 912.855469 C 640.34375 916.09375 639.808594 919.566406 641.148438 922.464844 C 642.695312 925.832031 646.898438 924.429688 649.679688 925.871094 C 652.890625 927.539062 656.375 928.65625 659.640625 930.214844 C 664.59375 932.582031 666.816406 936.71875 666.894531 943.503906 Z M 666.90625 943.492188 " fill-opacity="1" fill-rule="nonzero"/><path fill="#954d1a" d="M 449.695312 770.867188 C 449.394531 775.636719 449.277344 781.058594 446.640625 785.558594 C 437.433594 801.332031 434.558594 819.042969 430.371094 836.375 C 428.539062 843.929688 426.238281 851.339844 423.558594 858.648438 C 418.382812 872.78125 407.5 879.492188 393.429688 881.78125 C 384.015625 883.316406 377.320312 874.421875 380.101562 865.320312 C 386.214844 845.214844 390.6875 824.777344 393.339844 803.878906 C 394.628906 793.765625 394.964844 783.816406 394.015625 773.699219 C 392.441406 756.902344 399.699219 744.457031 413.339844 735.1875 C 416.589844 732.988281 419.644531 732.027344 423.453125 733.703125 C 441.59375 741.714844 449.332031 753.273438 449.695312 770.851562 Z M 449.695312 770.867188 " fill-opacity="1" fill-rule="nonzero"/><path fill="#0860d6" d="M 327.15625 951.683594 C 327.15625 950.773438 327.078125 949.863281 327.167969 948.964844 C 327.570312 945.105469 329.796875 944.023438 333.046875 946.273438 C 335.375 947.898438 337.609375 949.71875 339.675781 951.671875 C 360.117188 970.941406 383.820312 985.515625 408.019531 999.402344 C 415.09375 1003.460938 422.273438 1007.363281 429.398438 1011.339844 C 431.230469 1012.367188 433.324219 1013.394531 432.570312 1016.007812 C 431.894531 1018.363281 429.65625 1018.285156 427.71875 1018.335938 C 407.253906 1018.882812 390.660156 1027.75 376.617188 1042.105469 C 373.132812 1045.667969 370.363281 1049.699219 369.011719 1054.574219 C 368.738281 1055.589844 368.582031 1056.707031 367.320312 1056.914062 C 366.058594 1057.125 365.578125 1056.03125 364.953125 1055.226562 C 362.132812 1051.636719 360.105469 1047.554688 358.039062 1043.550781 C 345.386719 1019.066406 335.257812 993.605469 329.09375 966.675781 C 327.976562 961.773438 327.257812 956.753906 327.179688 951.683594 Z M 327.15625 951.683594 " fill-opacity="1" fill-rule="nonzero"/><path fill="#0860d6" d="M 351.730469 842.042969 C 351.574219 842.5625 351.417969 843.472656 351.042969 844.265625 C 337.921875 871.703125 331.5625 900.671875 331.132812 931.023438 C 331.054688 936.691406 328.285156 938.238281 323.386719 935.039062 C 316.609375 930.617188 311.1875 924.574219 305.882812 918.578125 C 295.011719 906.277344 286.066406 892.675781 279.851562 877.398438 C 279.472656 876.488281 278.65625 875.589844 279.410156 874.511719 C 280.265625 873.261719 281.464844 873.808594 282.582031 873.964844 C 290.695312 875.121094 298.667969 874.382812 306.234375 871.273438 C 315.113281 867.621094 323.632812 863.265625 330.769531 856.582031 C 336.492188 851.210938 343.644531 847.308594 347.480469 840.015625 C 347.972656 839.078125 348.910156 838.414062 350.078125 838.820312 C 351.378906 839.273438 351.601562 840.445312 351.71875 842.03125 Z M 351.730469 842.042969 " fill-opacity="1" fill-rule="nonzero"/><path fill="#ffb600" d="M 328.675781 926.394531 C 331.71875 898.617188 337.414062 871.441406 347.441406 845.28125 C 351.132812 835.644531 351.964844 835.398438 359.765625 841.953125 C 372.160156 852.367188 385.992188 859.414062 402.222656 861.390625 C 408.605469 862.171875 414.875 860.792969 421.21875 860.792969 C 422.777344 860.792969 424.519531 860.613281 425.144531 862.496094 C 425.820312 864.539062 424.378906 865.589844 422.84375 866.449219 C 400.011719 879.050781 380.285156 895.902344 360.324219 912.414062 C 351.835938 919.4375 343.683594 926.835938 335.90625 934.664062 C 335.085938 935.496094 334.242188 936.3125 333.304688 936.992188 C 331.121094 938.5625 329.574219 938.628906 329.105469 935.339844 C 328.691406 932.363281 328.558594 929.410156 328.675781 926.394531 Z M 328.675781 926.394531 " fill-opacity="1" fill-rule="nonzero"/><path fill="#ffb600" d="M 298.199219 1023.367188 C 299.953125 1005.464844 304.921875 988.339844 311.085938 971.511719 C 314.582031 961.980469 319.355469 953.101562 325.074219 944.714844 C 325.816406 943.621094 326.609375 942.515625 328.167969 942.855469 C 329.703125 943.191406 329.585938 944.546875 329.640625 945.664062 C 330.808594 970.304688 337.832031 993.515625 347.023438 1016.164062 C 352.132812 1028.75 357.867188 1041.078125 363.773438 1053.3125 C 364.304688 1054.417969 366.074219 1055.734375 364.265625 1056.980469 C 362.863281 1057.957031 361.507812 1056.863281 360.480469 1055.851562 C 354.488281 1049.855469 347.503906 1045.121094 340.679688 1040.207031 C 332.460938 1034.292969 323.230469 1030.625 313.410156 1028.441406 C 309.328125 1027.53125 305.195312 1027.257812 301.292969 1029.46875 C 299.328125 1030.570312 298.355469 1029.621094 298.199219 1027.632812 C 298.09375 1026.214844 298.171875 1024.785156 298.171875 1023.367188 Z M 298.199219 1023.367188 " fill-opacity="1" fill-rule="nonzero"/><path fill="#ff1b37" d="M 333.941406 941.503906 C 354.527344 942.414062 374.292969 943.570312 394.121094 943.6875 C 413.535156 943.789062 432.609375 941.410156 451.464844 937.042969 C 451.96875 936.925781 452.464844 936.703125 452.972656 936.664062 C 454.726562 936.546875 456.9375 935.691406 457.914062 937.652344 C 458.886719 939.605469 456.730469 940.5 455.53125 941.582031 C 446.914062 949.382812 441.777344 959.472656 437.964844 970.082031 C 433.53125 982.433594 430.855469 995.242188 432.609375 1008.570312 C 432.816406 1010.132812 433.050781 1011.613281 433.726562 1013.058594 C 434.3125 1014.34375 434.921875 1015.867188 433.597656 1016.996094 C 432.414062 1018 431.113281 1017.167969 429.96875 1016.632812 C 424.09375 1013.890625 418.304688 1010.964844 412.972656 1007.285156 C 395.289062 995.074219 376.773438 984.046875 360.054688 970.472656 C 351.09375 963.203125 342.355469 955.703125 334.175781 947.546875 C 333.632812 947.003906 333.070312 946.457031 332.566406 945.859375 C 331.71875 944.882812 330.746094 943.90625 331.34375 942.425781 C 332.03125 940.734375 333.554688 941.582031 333.941406 941.503906 Z M 333.941406 941.503906 " fill-opacity="1" fill-rule="nonzero"/><path fill="#ff1b37" d="M 262.910156 957.523438 C 262.386719 957.523438 261.867188 957.523438 261.347656 957.523438 C 259.539062 957.496094 257.421875 957.742188 256.433594 955.976562 C 255.546875 954.386719 257.292969 953.152344 258.019531 951.878906 C 268.265625 934.078125 275.46875 915.199219 278.421875 894.808594 C 279.238281 889.113281 278.617188 883.429688 277.628906 877.800781 C 277.40625 876.515625 277.03125 874.863281 278.445312 874.328125 C 280.203125 873.679688 280.398438 875.605469 280.878906 876.671875 C 287.976562 892.691406 298.132812 906.71875 309.03125 920.28125 C 313.828125 926.25 320.316406 930.488281 325.671875 935.9375 C 327.742188 938.058594 327.921875 939.382812 326.363281 941.464844 C 325.570312 942.53125 324.582031 943.347656 323.320312 943.789062 C 303.699219 950.667969 283.542969 955.207031 262.894531 957.523438 Z M 262.910156 957.523438 " fill-opacity="1" fill-rule="nonzero"/><path fill="#0ca500" d="M 387.566406 945.507812 C 370.988281 944.414062 353.019531 943.347656 335.074219 941.957031 C 330.378906 941.59375 329.914062 940.085938 332.8125 936.273438 C 341.355469 925.066406 351.847656 915.769531 362.417969 906.589844 C 378.671875 892.46875 395.890625 879.558594 413.820312 867.621094 C 416.394531 865.902344 419.191406 864.488281 421.933594 863.042969 C 425.328125 861.261719 426.550781 861.769531 427.382812 865.566406 C 429.28125 874.160156 431.007812 882.78125 434.105469 891.089844 C 439.722656 906.121094 448.09375 919.371094 458.914062 931.164062 C 460.109375 932.476562 461.734375 933.699219 461.046875 935.820312 C 460.394531 937.824219 458.433594 937.652344 456.832031 938.03125 C 434.496094 943.167969 411.726562 944.179688 387.542969 945.519531 Z M 387.566406 945.507812 " fill-opacity="1" fill-rule="nonzero"/><path fill="#0ca500" d="M 255.066406 955.832031 C 260.527344 955.976562 265.757812 955.921875 271.007812 955.46875 C 289.5 953.867188 307.351562 950.058594 323.984375 941.515625 C 325.320312 940.828125 326.699219 940.320312 327.832031 941.738281 C 328.769531 942.917969 327.921875 943.933594 327.195312 944.855469 C 315.296875 959.835938 310.058594 977.804688 304.414062 995.59375 C 301.824219 1003.746094 300.070312 1012.121094 298.863281 1020.597656 C 298.589844 1022.496094 298.808594 1024.472656 298.785156 1026.410156 C 298.769531 1027.609375 298.679688 1029.023438 297.25 1029.15625 C 295.804688 1029.296875 296.039062 1027.710938 295.753906 1026.839844 C 291.96875 1015.242188 287.238281 1004.035156 281.800781 993.136719 C 274.949219 979.394531 266.613281 966.636719 255.054688 955.84375 Z M 255.066406 955.832031 " fill-opacity="1" fill-rule="nonzero"/><path fill="#0860d6" d="M 337.101562 940.109375 C 337.101562 940.597656 337.054688 941.078125 336.960938 941.550781 C 336.867188 942.027344 336.726562 942.488281 336.539062 942.9375 C 336.355469 943.386719 336.128906 943.8125 335.859375 944.214844 C 335.589844 944.617188 335.28125 944.992188 334.941406 945.332031 C 334.597656 945.675781 334.222656 945.984375 333.820312 946.253906 C 333.417969 946.519531 332.992188 946.75 332.542969 946.933594 C 332.09375 947.121094 331.632812 947.261719 331.15625 947.355469 C 330.683594 947.449219 330.203125 947.496094 329.71875 947.496094 C 329.230469 947.496094 328.75 947.449219 328.277344 947.355469 C 327.800781 947.261719 327.339844 947.121094 326.890625 946.933594 C 326.441406 946.75 326.015625 946.519531 325.613281 946.253906 C 325.210938 945.984375 324.835938 945.675781 324.496094 945.332031 C 324.152344 944.992188 323.84375 944.617188 323.578125 944.214844 C 323.308594 943.8125 323.078125 943.386719 322.894531 942.9375 C 322.707031 942.488281 322.566406 942.027344 322.472656 941.550781 C 322.378906 941.078125 322.332031 940.597656 322.332031 940.109375 C 322.332031 939.625 322.378906 939.144531 322.472656 938.671875 C 322.566406 938.195312 322.707031 937.734375 322.894531 937.285156 C 323.078125 936.835938 323.308594 936.410156 323.578125 936.007812 C 323.84375 935.605469 324.152344 935.230469 324.496094 934.886719 C 324.835938 934.546875 325.210938 934.238281 325.613281 933.96875 C 326.015625 933.699219 326.441406 933.472656 326.890625 933.289062 C 327.339844 933.101562 327.800781 932.960938 328.277344 932.867188 C 328.75 932.773438 329.230469 932.726562 329.71875 932.726562 C 330.203125 932.726562 330.683594 932.773438 331.15625 932.867188 C 331.632812 932.960938 332.09375 933.101562 332.542969 933.289062 C 332.992188 933.472656 333.417969 933.699219 333.820312 933.96875 C 334.222656 934.238281 334.597656 934.546875 334.941406 934.890625 C 335.28125 935.230469 335.589844 935.605469 335.859375 936.007812 C 336.128906 936.410156 336.355469 936.835938 336.539062 937.285156 C 336.726562 937.734375 336.867188 938.195312 336.960938 938.671875 C 337.054688 939.144531 337.101562 939.625 337.101562 940.109375 Z M 337.101562 940.109375 " fill-opacity="1" fill-rule="nonzero"/><path fill="#954d1a" d="M 501.824219 633.230469 C 523.707031 633.359375 541.183594 650.238281 543.03125 672.511719 C 543.171875 674.1875 543.328125 675.867188 543.367188 677.558594 C 543.417969 679.753906 544.003906 681.300781 546.203125 682.523438 C 549.179688 684.175781 550.050781 687.414062 549.867188 690.613281 C 549.597656 695.65625 548.75 700.636719 547.191406 705.472656 C 546.226562 708.425781 544.070312 710.335938 541.105469 709.84375 C 537.453125 709.230469 537.335938 711.3125 537.046875 713.730469 C 535.839844 724.082031 533.472656 734.160156 529.167969 743.675781 C 524.695312 753.546875 518.078125 761.335938 506.765625 763.324219 C 498.78125 764.726562 491.003906 763.492188 483.800781 759.617188 C 479.535156 757.316406 476.597656 753.804688 474.972656 749.175781 C 471.917969 740.503906 468.730469 731.882812 465.753906 723.183594 C 464.960938 720.882812 463.921875 718.957031 461.839844 717.632812 C 453.152344 712.15625 450.226562 703.417969 448.640625 694.003906 C 447.847656 689.296875 451.425781 685.851562 456.847656 686.253906 C 459.316406 686.4375 459.484375 686.074219 459.070312 683.667969 C 455.480469 662.679688 462.933594 643.554688 486.089844 636.546875 C 491.421875 634.933594 496.660156 632.96875 501.808594 633.230469 Z M 501.824219 633.230469 " fill-opacity="1" fill-rule="nonzero"/></svg>